<svg width="149" height="352" viewBox="0 0 149 352" fill="none" xmlns="http://www.w3.org/2000/svg">
<path d="M109.773 28.9767C108.149 28.1509 106.37 29.0521 104.763 30.8406C104.369 31.2792 103.537 31.6424 102.855 31.0599C102.231 30.5254 102.649 29.9121 102.841 29.3433C103.718 26.729 106.884 24.985 109.601 25.5949C111.157 25.9444 112.171 25.451 113.01 23.9572C114.796 20.7878 116.982 19.7839 119.61 20.5C120.531 20.7501 121.182 21.2024 121.247 22.2029C121.312 23.2273 120.572 23.3473 119.777 23.6248C118.496 24.0702 117.365 24.6938 116.591 26.0678C115.32 28.3257 113.206 29.405 109.776 28.9767H109.773Z" fill="#FD8531"/>
<path d="M87.6748 19.3073C87.7228 17.2173 89.5216 15.2643 91.9611 14.9662C93.5578 14.7709 94.3047 14.2124 94.5651 12.465C94.9249 10.0597 96.4256 8.13414 97.8132 6.24624C98.2895 5.59867 99.1563 5.13955 99.9787 5.69803C100.876 6.31134 100.369 7.02744 99.9101 7.67159C98.3409 9.8747 97.4295 12.2902 96.895 15.0244C96.4941 17.0802 94.3458 17.5256 92.5127 17.8066C91.3307 17.9882 90.3987 18.3548 90.2925 19.7664C90.2137 20.832 89.5798 21.3048 88.6719 21.2123C87.5069 21.0924 87.7776 20.0234 87.6748 19.3073Z" fill="#FD8531"/>
<path d="M72.5661 15.2267C69.7085 13.1504 68.314 8.54542 72.5318 6.48278C74.4437 5.5474 75.3071 4.21457 73.8955 2.13823C73.4569 1.49066 73.0903 0.551853 74.1353 0.10986C75.0056 -0.260181 75.5881 0.363407 76.054 1.10349C78.4182 4.87927 78.1783 6.46908 74.8308 8.8949C72.5455 10.5532 72.5215 10.8445 74.4951 12.9379C74.9302 13.4005 75.3688 13.8596 75.8039 14.3222C76.2493 14.9869 76.7598 15.679 76.4275 16.5116C76.126 17.2654 75.5881 17.8752 74.6698 17.8992C73.7002 17.9266 73.1965 17.4195 73.1794 16.4568C73.1691 15.936 72.9155 15.5625 72.5592 15.2267H72.5661Z" fill="#FD8531"/>
<path d="M73.08 273.92C72.943 273.081 73.4021 272.228 72.919 271.426C72.1995 270.237 72.2132 268.904 72.1584 267.585C71.8363 266.53 70.9694 265.495 72.1172 264.402C72.3639 264.166 72.2234 263.782 72.0761 263.504C71.7061 262.802 71.6889 261.987 71.3189 261.288C71.0688 260.828 71.2675 260.297 71.103 259.825C71.2846 259.458 71.1853 259.071 71.0756 258.684C70.9763 256.58 70.9489 254.476 70.9626 252.365C70.9866 248.47 71.0825 244.574 71.1579 240.678C71.2538 235.744 70.7399 230.804 71.2744 225.88C71.4868 223.927 71.1305 221.971 71.9048 219.98C72.292 218.99 72.7374 217.421 72.268 216.355C71.36 214.292 71.6821 212.23 71.5827 210.143C71.5211 208.851 72.0487 207.611 71.8808 206.357C71.5622 203.996 71.6033 201.598 71.0311 199.268C71.0962 198.072 69.8936 197.832 69.3042 197.14C68.8348 196.592 68.3928 197.397 67.9166 197.527C67.7727 197.569 67.5945 197.558 67.4472 197.521C66.0116 197.157 64.5691 197.637 63.041 197.181C61.6019 196.753 59.8579 197.181 58.2441 197.034C57.8398 196.996 57.5829 197.339 57.3738 197.658C55.6778 197.363 53.9852 197.068 52.2892 196.774C51.926 196.938 51.6108 196.787 51.2648 196.678C50.9221 196.568 50.511 196.373 50.278 196.736C49.7024 196.702 49.1096 196.76 48.582 196.469C48.1777 196.246 47.8761 196.304 47.6843 196.739V196.729C46.7283 197.651 45.6216 197.774 44.467 197.192C43.9153 196.914 43.4939 196.712 43.1273 197.373C43.0176 197.476 42.9114 197.579 42.8018 197.682C42.7881 197.689 42.7744 197.689 42.7607 197.692C42.651 197.692 42.5414 197.692 42.4317 197.699C42.0651 197.589 41.8287 197.133 41.3799 197.168C39.3138 197.329 37.2443 196.88 35.2057 197.003C33.9242 197.082 32.5571 197.082 31.2963 197.531C31.2894 197.565 31.2894 197.599 31.2894 197.63C31.2654 197.637 31.2414 197.647 31.2175 197.654C30.5528 197.678 29.888 197.668 29.2473 197.88C29.2233 197.88 29.1959 197.88 29.172 197.88C29.0486 197.771 28.9081 197.699 28.7471 197.661C28.0139 197.425 27.2224 197.339 26.52 197.558C24.8548 198.079 23.2582 197.918 21.6546 197.38C19.962 197.192 18.0981 197.98 16.6248 196.486C16.4432 196.301 16.1006 196.554 15.9704 196.794C15.6826 197.315 15.2303 197.291 14.7198 197.274C12.198 197.192 9.72768 198.11 7.17508 197.644C6.85986 197.586 6.47612 197.874 6.12663 198.004C5.98273 198.107 5.80799 198.192 5.75317 198.346C5.68122 198.364 5.60926 198.381 5.53731 198.401C5.30432 198.456 5.07819 198.463 4.85548 198.449C4.58137 198.384 4.31755 198.281 4.08456 198.089C3.16288 198.12 2.24121 197.856 1.31953 198.089C0.569171 198.353 0.181998 198.826 0.19913 199.535C0.144309 199.652 0.086062 199.772 0.0312411 199.902C-0.188042 201.824 0.76447 203.119 2.34057 204.079C2.40567 204.116 2.46049 204.164 2.51874 204.209C2.50503 204.281 2.49133 204.353 2.48105 204.425C4.01946 206.217 5.55787 208.005 7.0997 209.797C7.21963 209.938 7.29843 210.15 7.47317 210.188C7.48345 210.201 7.4903 210.212 7.50058 210.225C7.77469 210.856 8.57987 210.702 8.96019 211.171C8.91222 211.243 8.91565 211.332 8.9876 211.431C9.34051 212.278 10.2793 212.47 10.92 212.949C11.9137 213.693 12.0678 215.067 13.2328 215.591C14.0859 216.554 14.9391 217.513 15.7922 218.476C16.8955 219.637 17.8926 220.922 19.1295 221.923C20.0854 222.697 19.6948 224.116 20.8255 224.705C21.617 225.116 22.0487 225.863 22.5215 226.579C24.1867 229.115 25.5366 231.849 27.4759 234.209C27.8597 234.95 28.288 235.673 28.6237 236.437C29.6105 238.684 31.5978 240.253 32.7387 242.392C32.8826 242.566 32.9751 242.827 33.2424 242.775C33.2595 242.799 33.2767 242.823 33.2972 242.844C33.4651 242.964 33.6124 243.094 33.7426 243.238C33.8317 243.358 33.9174 243.481 34.0065 243.601C34.0613 243.7 34.1058 243.807 34.1367 243.92C34.3971 244.53 35.0069 244.793 35.4592 245.215C35.8875 245.585 35.7744 246.116 35.8807 246.582C36.3055 247.418 37.6212 246.822 37.9399 247.826C39.1185 249.337 40.8488 250.399 41.7191 252.132C42.096 252.879 42.4557 253.537 43.2129 253.918C44.0216 254.325 44.186 255.151 44.5526 255.847C44.7925 256.306 45.0803 256.761 45.303 257.197C46.2658 259.078 47.8933 260.541 48.6402 262.535C49.5173 263.775 50.3808 265.022 51.2819 266.245C51.3744 266.369 51.6656 266.352 51.8644 266.403C52.3577 267.482 52.7655 268.603 53.5158 269.548C53.694 270.264 53.9852 270.83 54.6123 271.364C55.414 272.046 56.0719 272.978 56.3562 274.047C56.7605 275.555 58.5731 276.123 58.8335 277.713C58.8437 277.778 59.0185 277.84 59.1213 277.83C59.9607 277.751 60.3273 278.426 60.8344 278.868C62.2974 280.153 63.0341 282.14 64.9768 282.976C65.364 283.144 65.4291 283.682 65.6826 284.021C65.7306 284.127 65.7751 284.234 65.8231 284.34C65.8231 284.532 65.8231 284.723 65.8231 284.915C66.1623 285.82 67.036 286.091 67.7864 286.509C69.455 288.174 70.3527 288.174 71.3703 286.519C71.4731 286.385 71.5108 286.252 71.4868 286.121C71.5005 286.115 71.5108 286.104 71.5245 286.094C71.9014 285.782 72.3297 285.508 72.4873 285.008C72.8059 284.196 72.4907 283.305 72.8128 282.496C73.9332 279.673 73.5494 276.788 73.0766 273.924L73.08 273.92ZM71.8123 218.044C71.8123 218.044 71.8123 218.037 71.8123 218.03C71.7952 217.52 71.8054 217.027 71.7849 216.523C71.874 217.04 71.8705 217.554 71.8123 218.044ZM21.4388 224.749C21.7746 225.024 22.0315 225.363 22.2679 225.716C21.9801 225.394 21.6958 225.072 21.4388 224.749Z" fill="#FD8531"/>
<path d="M139.19 179.891C139.471 178.744 139.077 177.483 138.279 176.945C136.62 175.828 135.401 174.241 133.777 173.124C132.927 172.706 132.769 171.542 131.782 171.271C129.374 168.331 128.024 164.795 126.263 161.489C125.125 159.354 123.871 157.271 122.257 155.441C121.353 153.577 120.397 151.744 118.951 150.23C117.724 148.948 116.631 147.568 115.597 146.125C114.833 145.056 114.147 143.888 112.955 143.192C112.955 143.113 112.938 143.038 112.91 142.966C111.495 141.825 110.663 140.246 109.703 138.752C108.607 137.039 107.884 135.007 105.921 133.976C105.893 133.969 105.869 133.955 105.838 133.945C105.811 133.856 105.787 133.767 105.76 133.677C104.824 133.29 104.321 132.55 103.975 131.629C103.276 129.761 102.076 128.219 100.74 126.773C100.672 126.787 100.603 126.801 100.535 126.815C100.504 126.773 100.473 126.736 100.442 126.695C97.862 124.817 95.3403 122.874 93.216 120.466C93.0618 120.291 92.774 120.236 92.6164 120.041C91.9654 119.249 90.5195 118.862 90.5777 117.824C90.6771 115.957 89.3511 114.925 88.5391 113.675C87.3433 111.831 85.7706 110.224 84.3247 108.549C84.1911 108.09 83.8073 107.884 83.4373 107.665C82.985 106.754 82.7692 105.702 81.8715 105.058L81.9229 104.958C81.474 103.687 79.3737 99.1746 78.5103 98.246C77.9826 97.4032 77.2905 96.8755 76.2284 97.0297C75.9131 97.0777 75.6699 96.8961 75.4335 96.7076C74.4398 95.9196 70.7497 95.553 69.7081 96.1731C67.2549 97.6362 64.5001 104.557 62.7733 106.682C61.6289 109.46 59.9431 111.886 57.9319 114.103C56.9828 115.001 56.325 116.087 55.8898 117.307C55.3382 118.845 54.6563 120.315 53.5085 121.497C52.8849 122.138 52.3641 122.84 51.9119 123.604C50.8908 126.283 48.7528 128.223 47.2829 130.604C46.3167 131.916 45.3025 133.194 44.3911 134.544C43.2022 136.305 42.1572 138.162 40.9374 139.896C39.5121 141.928 37.9223 143.843 36.9698 146.177C36.8087 146.574 36.4867 146.934 36.1714 147.239C33.0535 150.285 30.4632 153.841 27.0575 156.606C26.756 156.853 26.5298 157.196 26.2797 157.504C23.6312 160.79 21.5754 164.524 18.6562 167.605C16.597 169.777 15.6102 172.713 13.3591 174.773C11.7488 176.246 10.5393 178.099 9.64158 180.124C8.92548 180.673 8.48691 181.444 8.00723 182.177C7.12324 183.537 9.99448 185.137 11.1389 186.059C12.0674 186.809 14.0855 188.221 15.1305 187.117C17.0047 184.897 18.9508 182.732 20.4755 180.237C21.4932 179.23 22.312 178.051 23.2714 176.993C24.1348 175.927 24.57 174.433 25.7486 173.751C26.893 173.09 27.6708 172.117 28.6404 171.319C32.6047 166.501 35.9727 161.211 40.2864 156.671C42.2668 153.588 44.4871 150.651 46.1386 147.359C47.3994 144.936 49.5306 143.144 50.884 140.79C52.2751 139.245 53.2379 137.368 54.6838 135.863C55.7459 133.914 57.4488 132.396 58.3979 130.368C60.0322 128.702 61.0087 126.595 62.2936 124.694C64.2534 121.788 66.4257 119.027 68.4918 116.193C70.0679 114.031 71.5069 111.773 73.2372 109.728C73.5113 109.402 73.8642 108.768 74.1897 109.44C75.7007 112.565 78.5685 114.706 80.1446 117.766C81.361 120.13 82.8925 122.227 84.8147 124.087C87.3775 126.568 89.9644 129.052 92.2532 131.779C94.0725 133.948 95.2341 136.641 97.2179 138.724C97.3618 139.488 97.6393 140.194 98.0779 140.835C98.376 141.034 98.6706 141.232 98.9687 141.431C99.3353 142.14 99.7602 142.798 100.469 143.22C100.809 143.761 101.052 144.398 101.501 144.823C104.54 147.708 106.89 151.193 109.734 154.246C110.022 154.722 109.563 155.462 110.272 155.784C110.961 156.092 111.331 156.774 111.937 157.175C111.954 157.185 111.961 157.202 111.978 157.213C111.965 157.329 111.996 157.442 112.061 157.559C112.174 157.984 112.112 158.518 112.547 158.768C114.178 159.71 113.746 158.919 114.959 160.194C115.223 160.471 115.538 160.872 115.531 161.211C115.504 162.856 116.553 163.966 117.293 165.265C117.954 166.423 119.03 167.399 119.479 168.485C119.835 169.345 120.369 169.873 120.935 170.373C121.157 170.606 121.39 170.829 121.661 171.024C122.483 171.997 122.47 173.638 124.046 174.012C124.395 174.803 124.995 175.369 125.694 175.845C126.211 177.414 126.204 177.514 124.649 177.407C121.26 177.181 117.875 177.353 114.493 177.462C112.393 177.527 110.289 177.633 108.192 177.777C106.133 177.983 104.094 178.418 102.042 178.589C98.0539 178.925 94.0862 179.449 90.098 179.741C87.9257 179.898 85.7432 180.292 83.5983 180.275C79.8191 180.248 76.0399 180.309 72.2607 180.316C68.2588 180.327 64.25 180.508 60.2549 180.936C58.4527 181.128 56.6196 181.378 54.7797 181.306C52.8575 181.231 50.932 181.293 49.0064 181.306C46.6285 181.32 47.557 181.557 45.1792 181.553C44.4391 181.553 43.9594 181.382 44.4391 180.518C46.5703 178.613 45.5766 178.572 47.3823 176.397C48.722 175.304 49.5957 173.82 50.651 172.491C51.7166 171.374 52.6006 170.116 53.4948 168.862C58.1546 162.338 63.969 156.668 67.6797 149.442C68.2828 148.27 69.5676 147.533 70.0644 146.238C70.2289 145.937 70.3797 145.519 70.7703 145.58C71.2465 145.652 71.0581 146.125 71.082 146.437C71.1506 147.42 71.2122 148.407 71.2842 149.384C71.3973 150.922 71.8358 152.395 71.9249 153.92C72.0722 156.39 71.829 158.833 71.4144 161.273C71.2431 162.284 71.5583 163.27 72.3292 163.993C72.6753 164.319 73.1961 164.408 73.4976 164.867C74.5255 166.443 76.0468 166.741 77.7839 166.433C78.7604 166.258 79.7335 166.258 80.7374 166.306C83.242 166.433 85.8014 166.7 87.6585 164.302C88.6727 162.989 88.7892 162.743 87.6688 161.407C87.2576 161.067 86.8876 160.708 86.2811 160.656C84.3418 160.492 82.4197 160.591 80.4975 160.851C80.1241 161.102 79.7403 160.917 79.3531 160.896C77.4036 160.8 78.6028 161.03 78.637 159.039C78.6987 155.503 78.3321 152.012 77.6057 148.558C77.2665 145.659 77.6229 142.781 77.8627 139.9C78.0511 138.851 78.3629 137.823 78.3355 136.737C78.2876 134.88 73.8711 133.174 72.1202 133.838C71.1746 134.198 70.4619 134.883 69.715 135.524C68.3992 137.563 66.6039 139.211 65.2505 141.25C63.3694 144.08 61.1492 146.687 59.2853 149.541C58.5932 150.322 58.2368 151.354 57.4522 152.06C54.0842 155.095 51.792 159.022 48.8214 162.39C48.5267 162.784 48.232 163.181 47.9374 163.575C47.3549 164.22 46.8752 164.936 46.4401 165.679C42.3217 171.514 39.3236 177.157 34.2835 182.269C32.6732 183.904 34.078 182.156 33.1906 183.859C32.238 185.696 33.8587 188.077 35.8973 188.31C36.6854 188.399 37.4837 188.395 38.2752 188.464C44.2781 188.981 50.2775 188.505 56.277 188.334C59.5902 188.241 62.8932 187.803 66.2064 187.618C68.7693 187.474 71.3424 187.484 73.9087 187.426C74.1383 187.765 74.4912 187.734 74.8407 187.745C77.9826 187.851 81.1211 188.186 84.2733 188.039C87.6311 187.882 91.0094 188.471 94.3398 188.001C98.9584 187.354 103.649 188.039 108.237 187.104C108.237 187.056 108.24 187.008 108.244 186.96C109.333 186.95 110.426 187.025 111.509 186.819C111.852 186.833 112.194 186.819 112.537 186.809C112.671 186.816 112.808 186.813 112.941 186.809C113.298 186.816 113.65 186.847 114 186.946C115.432 187.08 116.844 186.744 118.286 186.84C120.435 186.984 122.507 187.721 124.714 187.467C125.704 187.354 126.79 187.508 127.746 188.005C129.59 188.964 131.491 188.79 133.376 188.221C134.184 187.977 134.918 187.57 135.808 187.906C136.357 188.111 136.696 187.786 137.018 187.32C137.748 186.264 139.183 182.763 139.046 181.646C139.053 181.053 139.053 180.47 139.197 179.878L139.19 179.891ZM115.453 160.341C115.566 160.533 115.658 160.735 115.72 160.944C115.634 160.742 115.542 160.543 115.453 160.341Z" fill="#FD8531"/>
<path d="M148.153 196.618C148.047 195.128 139.81 193.024 138.371 192.99C135.411 192.918 132.454 192.637 129.483 192.808C126.331 192.99 123.189 193.343 120.033 193.497C118.598 193.73 117.162 193.679 115.723 193.542C115.23 193.459 114.736 193.483 114.243 193.521C113.109 193.706 111.978 193.706 110.844 193.521C110.584 193.48 110.334 193.514 110.083 193.593C109.734 193.61 109.384 193.627 109.035 193.651C108.548 193.638 108.062 193.624 107.575 193.61C105.297 193.562 103.015 193.398 100.743 193.494C97.1286 193.644 93.5276 194.062 89.9128 194.179C87.6035 194.254 85.2839 194.522 82.9506 194.049C81.6588 193.788 81.2957 195.142 80.2643 196.197C78.4964 196.934 77.9173 198.362 77.6295 200.175C76.9271 204.602 77.9721 208.96 77.9721 213.359C77.9721 217.957 79.1953 222.511 78.6368 227.15C78.4895 228.38 78.2839 229.621 78.3079 230.854C78.3936 235.373 78.2291 239.876 77.8694 244.385C77.6638 246.951 77.5301 249.555 77.722 252.118C78.1606 258.018 77.8248 263.911 77.8351 269.804C77.8454 274.961 77.465 280.114 78.0201 285.264C78.2154 287.073 78.188 288.93 78.4552 290.698C79.0514 294.666 78.9212 298.582 78.4895 302.525C78.2771 304.485 78.1435 306.452 78.0749 308.422C77.9961 310.649 78.5409 312.907 78.2702 315.083C77.9447 317.701 78.1263 320.311 77.9002 322.922C77.5781 326.664 77.7563 330.44 77.7803 334.202C77.7905 336.028 77.3314 337.796 77.4822 339.66C77.6741 342.007 77.9619 344.354 77.8556 346.742C77.8008 347.927 77.9447 349.411 79.5654 349.887C79.8018 349.956 79.9594 350.172 80.0793 350.401C80.9496 352.036 87.6206 352.063 89.2378 351.124C90.0259 348.931 90.8173 346.742 91.6054 344.549C91.9789 343.381 92.3866 342.229 92.9588 341.133C93.9421 339.245 94.7919 337.292 95.4943 335.281C95.806 334.702 96.1213 334.123 96.4331 333.544C98.972 329.72 100.414 325.478 101.22 320.99C101.518 320.106 101.812 319.212 102.1 318.328C102.333 317.611 103.186 317.029 102.977 316.378C102.456 314.768 103.693 313.825 104.132 312.589C104.272 311.036 104.951 309.68 105.633 308.319C105.9 307.788 106.198 307.271 106.397 306.706C108.106 301.854 110.066 297.102 111.941 292.312C111.944 292.219 111.951 292.123 111.954 292.031C113.184 290.636 113.458 288.865 113.928 287.155C114.932 283.489 115.987 279.836 117.022 276.177C117.758 274.557 118.392 272.881 119.249 271.329C121.068 268.026 122.463 264.559 123.597 260.975C124.186 259.214 124.817 257.463 125.358 255.688C126.595 251.604 128.233 247.667 129.929 243.764C131.08 241.116 132.166 238.478 132.539 235.593C132.584 235.528 132.605 235.466 132.608 235.411C133.602 232.845 134.259 230.141 135.866 227.825C136.682 226.653 137.24 225.321 137.634 223.933C138.313 222.994 138.724 221.911 139.07 220.839C140.396 216.714 142.198 212.839 144.463 209.131C146.378 205.993 147.745 202.573 148.043 198.828C148.342 198.112 148.215 197.355 148.163 196.629L148.153 196.618ZM131.529 214.898C129.894 219.643 127.825 224.18 125.721 228.713C124.488 231.375 123.802 234.236 122.846 236.997C121.808 240.05 120.273 242.904 119.287 245.978C119.276 246.262 119.266 246.55 119.256 246.834C118.474 247.807 118.094 248.959 117.779 250.141C116.155 253.666 115.47 257.5 114.181 261.132C112.855 264.86 111.485 268.557 109.768 272.151C108.182 275.471 106.894 278.994 106.106 282.639C104.605 285.411 103.522 288.358 102.532 291.339C100.14 297.417 97.9269 303.574 95.1688 309.501C93.346 313.414 92.3455 317.519 91.602 321.737C90.6872 326.924 87.7645 331.337 85.8355 336.134C85.301 336.203 85.0029 335.822 85.1777 335.449C85.534 334.688 85.2428 333.876 85.5203 333.136C86.0514 332.437 85.51 331.707 85.5648 330.988C85.8561 327.044 86.1233 323.1 86.3289 319.153C86.5173 315.545 86.6236 311.934 86.7469 308.326C86.7709 307.631 86.7606 306.939 87.0073 306.277C87.463 304.307 87.1683 302.282 87.487 300.298C88.0866 296.55 87.6138 292.808 87.439 289.057C87.2574 285.178 87.1341 281.286 87.3328 277.397C87.3636 276.767 87.463 276.098 87.0416 275.526C87.6377 273.306 86.9285 271.069 87.021 268.821C87.1032 266.813 86.7777 264.665 86.627 262.578C86.6099 262.335 86.6818 262.088 86.7126 261.842C86.4283 261.328 86.2055 260.838 86.4899 260.207C86.8291 259.453 86.5619 258.73 86.3734 257.997C86.5173 257.692 86.6407 257.387 86.4283 257.021V257.028C85.9863 255.332 85.4449 253.663 85.8047 251.85C85.8869 251.439 85.8732 250.867 85.4689 250.487C85.2016 250.257 85.2085 250.024 85.4552 249.788C85.4244 247.681 85.325 245.58 85.6642 243.477C85.8835 242.127 85.5546 240.732 85.8149 239.368C85.88 239.293 85.976 239.211 85.9726 239.129C85.7156 234.517 86.4865 229.939 86.4351 225.334C86.5379 224.399 86.6373 223.467 86.5379 222.518C86.2672 219.958 86.0102 217.396 85.7704 214.833C85.5443 212.407 86.0719 210.002 85.5991 207.518C85.4243 206.603 85.3455 205.643 85.2873 204.674C85.2839 204.221 85.2633 203.762 85.2153 203.307C85.1914 202.851 85.1674 202.399 85.1331 201.946C85.0509 200.846 85.373 200.96 86.1781 201.151C88.0146 201.59 89.8717 201.645 91.7767 201.559C94.5417 201.439 97.2725 200.915 100.072 201.083C102.114 201.206 104.197 200.987 106.236 200.61C106.582 200.62 106.924 200.624 107.27 200.644C110.686 200.85 114.082 200.223 117.512 200.411C119.848 200.538 122.199 200.381 124.56 200.5C127.078 200.631 129.624 200.24 132.159 200.089C133.636 200 135.116 199.966 136.589 199.825C137.038 199.784 137.521 199.586 137.854 199.928C138.292 200.381 137.874 200.867 137.682 201.292C137.257 202.22 136.439 202.988 136.531 204.129C134.431 207.518 132.817 211.16 131.529 214.898Z" fill="#FD8531"/>
<path d="M113.479 55.3107C112.321 54.3034 110.978 54.5261 109.649 55.2148C103.214 58.5417 96.5806 61.3033 89.423 62.7286C82.8959 64.0272 76.6738 63.5886 70.664 60.5118C67.3439 58.809 64.4384 56.575 61.5946 54.2143C61.0293 53.553 60.4605 52.8917 59.8952 52.2305C59.6862 52.2373 59.5388 52.1482 59.4052 52.0317C59.2784 51.8399 59.1551 51.6411 59.0557 51.4253C57.9182 49.9691 57.041 48.3519 56.1057 46.7689C55.5438 45.5149 54.9818 44.2609 54.4199 43.0068C53.7552 41.7254 53.4743 40.348 53.3612 38.9227C52.7822 37.4905 52.9672 35.9418 52.6896 34.4616C52.1072 33.5468 52.6451 32.3271 51.5144 31.4533C49.4518 29.8601 47.0362 29.5346 45.073 31.3745C42.397 33.886 40.3824 36.723 40.3755 40.6461C40.3755 42.3387 40.8929 44.1684 39.5703 45.7033C39.3647 45.9432 39.4675 46.4674 39.4641 46.8614C39.4401 49.5168 39.9815 52.114 40.2522 54.7317C40.5228 57.3631 40.7867 59.967 41.5816 62.4888C42.6266 65.8089 44.1307 68.872 46.5086 71.5C48.6021 73.8127 50.8189 75.937 53.2824 77.8798C55.9001 79.9458 58.5418 81.9057 61.5569 83.3413C61.9852 83.6017 62.2867 84.1019 62.8041 84.167C64.9421 84.4343 66.8574 85.3868 68.8515 86.0926C68.9714 86.1097 69.0914 86.1269 69.2113 86.1474C70.4208 86.9218 71.8598 86.7162 73.2029 86.7162C75.3169 86.7162 77.3899 87.1925 79.4833 87.3912C80.3125 87.5419 81.1451 87.5488 81.988 87.4529C82.0839 87.4494 82.1764 87.4426 82.2689 87.4289C82.2963 87.4289 82.3237 87.4289 82.3512 87.422C82.3614 87.422 82.3751 87.4117 82.3854 87.4049C82.4334 87.3946 82.4848 87.3878 82.5327 87.3775C83.7457 87.213 84.9517 86.9972 86.1681 86.8464C87.4461 86.6134 88.6316 86.0618 89.8753 85.7191C91.3795 85.2189 92.75 84.376 94.3055 84.006C95.6521 83.7867 96.6525 82.8856 97.7866 82.2483C97.8654 82.1455 97.9511 82.0496 98.0368 81.9536C98.1635 81.9605 98.2937 81.9639 98.4205 81.9708C98.7803 81.6418 99.1366 81.3095 99.4964 80.9806C101.682 79.8156 103.783 78.5205 105.664 76.8964C107.63 75.3272 109.33 73.5146 110.752 71.4383C110.971 71.195 111.19 70.9518 111.41 70.7085C111.41 70.5303 111.403 70.3556 111.399 70.1774C111.406 70.1603 111.41 70.1397 111.413 70.1192C111.444 70.1123 111.471 70.1021 111.502 70.0849C112.115 69.3585 112.414 68.4746 112.756 67.6111C113.047 66.871 113.363 66.1378 113.63 65.3909C114.185 63.8353 114.836 62.3038 115.227 60.7071C115.74 58.6102 115.096 56.7121 113.479 55.3038V55.3107Z" fill="#FD8531"/>
<path d="M97.7908 31.0046C96.7321 29.6958 95.8721 28.0237 94.6215 27.1158C92.3602 25.4746 90.0817 23.8128 87.3338 22.7507C83.9451 21.4418 80.5634 21.0855 77.0617 21.0649C75.0744 21.0512 73.0015 21.3356 71.285 22.1956C68.0848 23.7957 64.3981 24.7962 62.1915 27.873C61.729 28.5171 61.1191 29.0311 60.4544 29.4559C59.358 30.1583 58.9742 31.3198 57.7613 32.1079C57.0521 32.5704 55.5274 34.6913 55.8871 35.3183C56.2572 35.9659 57.1926 36.3942 57.8573 36.1269C58.2787 35.9591 58.7173 35.8186 59.1113 35.6027C63.634 33.1187 68.167 30.7374 73.4915 30.3673C74.3892 30.3057 75.304 30.6414 76.1503 30.3125C78.0176 29.5861 79.8644 30.3296 81.6872 30.4496C83.092 30.5421 84.531 31.0971 85.9256 31.8715C86.902 32.4128 87.6832 33.1872 88.533 33.8553C90.1845 35.1505 91.6201 36.7094 92.6445 38.5391C93.1242 39.3956 93.5662 40.2796 93.9876 41.1807C94.9778 43.3051 96.7287 44.5968 96.6773 46.7451C96.6156 49.3216 97.5716 51.5659 97.294 54.1425C97.2084 54.9442 97.2461 55.7974 98.1814 56.1537C99.1442 56.5203 99.6136 56.8492 100.289 56.1434C101.128 55.2663 101.275 54.1185 101.43 52.9946C101.532 52.2648 101.772 51.5693 101.923 50.8669C102.351 48.8797 102.516 46.4984 102.471 44.4906C102.365 39.5361 100.837 34.986 97.7943 31.0046H97.7908Z" fill="#FD8531"/>
<path d="M61.8309 16.2393C61.6356 16.0543 61.3752 15.9001 61.2689 15.674C60.5631 14.1869 59.2097 13.4708 57.7844 13.0768C56.4755 12.7171 55.9068 12.0763 56.0404 10.7812C56.1295 9.90064 56.3179 9.02693 56.3865 8.14294C56.5338 6.22079 56.455 4.32261 55.5196 2.56835C55.2832 2.12293 54.8789 1.80428 54.3444 1.90707C53.8853 1.99615 53.6694 2.38333 53.7414 2.8356C54.2039 5.81991 54.3787 8.80079 53.618 11.4459C53.5769 13.8786 55.0776 14.8242 56.6846 15.4204C57.9283 15.8795 58.9973 16.1125 59.4599 17.6509C59.823 18.857 61.1387 18.5486 62.1564 18.439C62.636 18.3876 63.2802 18.3705 63.3727 17.8565C63.5749 16.7258 62.3756 16.7601 61.8274 16.2427L61.8309 16.2393Z" fill="#FD8531"/>
<path d="M115.597 41.9622C117.122 41.3592 116.714 41.7909 118.53 41.3763C118.516 41.527 119.565 41.0816 119.531 41.1913C119.572 41.1913 119.613 41.1913 119.654 41.1913C121.24 40.9309 122.833 40.7082 124.406 40.3895C125.112 40.2456 125.825 39.9133 126.297 40.7356C126.743 41.5133 126.236 42.1952 125.866 42.8016C125.431 43.5177 124.79 44.0454 123.947 44.0831C122.58 44.1482 121.418 44.8814 120.168 45.3131C120.161 45.3131 120.151 45.3131 120.144 45.3131C120.195 45.4707 120.178 45.6318 120.079 45.7928C118.602 46.7693 116.992 46.317 115.546 45.9504C114.141 45.5975 113.442 46.0052 112.633 47.1256C111.28 49.0101 108.333 49.4007 106.589 48.0747C106.206 47.7801 105.938 47.3415 106 46.7967C106.082 46.0566 106.589 45.9196 107.186 45.9059C108.357 45.8785 109.632 46.3376 110.598 45.2789C110.598 45.2789 114.319 42.3939 115.601 41.9588L115.597 41.9622Z" fill="#FD8531"/>
</svg>
